o Background
v -0.775 0.14 -0.37499999999999989
v -0.52500000000000013 0.14 -0.37499999999999989
v -0.50500000000000012 0.15 -0.39499999999999991
v -0.795 0.15 -0.39499999999999991
v -0.52500000000000013 0.14 -0.12499999999999992
v -0.50500000000000012 0.15 -0.10499999999999993
v -0.775 0.14 -0.12499999999999992
v -0.795 0.15 -0.10499999999999993
v -0.775 0.14 -0.075000000000000067
v -0.52500000000000013 0.14 -0.075000000000000067
v -0.50500000000000012 0.15 -0.095000000000000057
v -0.795 0.15 -0.095000000000000057
v -0.52500000000000013 0.14 0.17499999999999993
v -0.50500000000000012 0.15 0.19499999999999992
v -0.775 0.14 0.17499999999999993
v -0.795 0.15 0.19499999999999992
v -0.775 0.14 0.22499999999999995
v -0.52500000000000013 0.14 0.22499999999999995
v -0.50500000000000012 0.15 0.20499999999999996
v -0.795 0.15 0.20499999999999996
v -0.52500000000000013 0.14 0.475
v -0.50500000000000012 0.15 0.49499999999999994
v -0.775 0.14 0.475
v -0.795 0.15 0.49499999999999994
v -0.775 0.14 0.525
v -0.52500000000000013 0.14 0.525
v -0.50500000000000012 0.15 0.505
v -0.795 0.15 0.505
v -0.52500000000000013 0.14 0.77499999999999991
v -0.50500000000000012 0.15 0.79499999999999993
v -0.775 0.14 0.77499999999999991
v -0.795 0.15 0.79499999999999993
v -0.475 0.14 -0.37499999999999989
v -0.225 0.14 -0.37499999999999989
v -0.20500000000000002 0.15 -0.39499999999999991
v -0.495 0.15 -0.39499999999999991
v -0.225 0.14 -0.12499999999999992
v -0.20500000000000002 0.15 -0.10499999999999993
v -0.475 0.14 -0.12499999999999992
v -0.495 0.15 -0.10499999999999993
v -0.475 0.14 -0.075000000000000067
v -0.225 0.14 -0.075000000000000067
v -0.20500000000000002 0.15 -0.095000000000000057
v -0.495 0.15 -0.095000000000000057
v -0.225 0.14 0.17499999999999993
v -0.20500000000000002 0.15 0.19499999999999992
v -0.475 0.14 0.17499999999999993
v -0.495 0.15 0.19499999999999992
v -0.475 0.14 0.22499999999999995
v -0.225 0.14 0.22499999999999995
v -0.20500000000000002 0.15 0.20499999999999996
v -0.495 0.15 0.20499999999999996
v -0.225 0.14 0.475
v -0.20500000000000002 0.15 0.49499999999999994
v -0.475 0.14 0.475
v -0.495 0.15 0.49499999999999994
v -0.475 0.14 0.525
v -0.225 0.14 0.525
v -0.20500000000000002 0.15 0.505
v -0.495 0.15 0.505
v -0.225 0.14 0.77499999999999991
v -0.20500000000000002 0.15 0.79499999999999993
v -0.475 0.14 0.77499999999999991
v -0.495 0.15 0.79499999999999993
v -0.17500000000000004 0.14 -0.37499999999999989
v 0.074999999999999956 0.14 -0.37499999999999989
v 0.094999999999999946 0.15 -0.39499999999999991
v -0.19500000000000003 0.15 -0.39499999999999991
v 0.074999999999999956 0.14 -0.12499999999999992
v 0.094999999999999946 0.15 -0.10499999999999993
v -0.17500000000000004 0.14 -0.12499999999999992
v -0.19500000000000003 0.15 -0.10499999999999993
v -0.17500000000000004 0.14 -0.075000000000000067
v 0.074999999999999956 0.14 -0.075000000000000067
v 0.094999999999999946 0.15 -0.095000000000000057
v -0.19500000000000003 0.15 -0.095000000000000057
v 0.074999999999999956 0.14 0.17499999999999993
v 0.094999999999999946 0.15 0.19499999999999992
v -0.17500000000000004 0.14 0.17499999999999993
v -0.19500000000000003 0.15 0.19499999999999992
v -0.17500000000000004 0.14 0.22499999999999995
v 0.074999999999999956 0.14 0.22499999999999995
v 0.094999999999999946 0.15 0.20499999999999996
v -0.19500000000000003 0.15 0.20499999999999996
v 0.074999999999999956 0.14 0.475
v 0.094999999999999946 0.15 0.49499999999999994
v -0.17500000000000004 0.14 0.475
v -0.19500000000000003 0.15 0.49499999999999994
v -0.17500000000000004 0.14 0.525
v 0.074999999999999956 0.14 0.525
v 0.094999999999999946 0.15 0.505
v -0.19500000000000003 0.15 0.505
v 0.074999999999999956 0.14 0.77499999999999991
v 0.094999999999999946 0.15 0.79499999999999993
v -0.17500000000000004 0.14 0.77499999999999991
v -0.19500000000000003 0.15 0.79499999999999993
v 0.12499999999999994 0.14 -0.37499999999999989
v 0.37499999999999989 0.14 -0.37499999999999989
v 0.39499999999999991 0.15 -0.39499999999999991
v 0.10499999999999995 0.15 -0.39499999999999991
v 0.37499999999999989 0.14 -0.12499999999999992
v 0.39499999999999991 0.15 -0.10499999999999993
v 0.12499999999999994 0.14 -0.12499999999999992
v 0.10499999999999995 0.15 -0.10499999999999993
v 0.12499999999999994 0.14 -0.075000000000000067
v 0.37499999999999989 0.14 -0.075000000000000067
v 0.39499999999999991 0.15 -0.095000000000000057
v 0.10499999999999995 0.15 -0.095000000000000057
v 0.37499999999999989 0.14 0.17499999999999993
v 0.39499999999999991 0.15 0.19499999999999992
v 0.12499999999999994 0.14 0.17499999999999993
v 0.10499999999999995 0.15 0.19499999999999992
v 0.12499999999999994 0.14 0.22499999999999995
v 0.37499999999999989 0.14 0.22499999999999995
v 0.39499999999999991 0.15 0.20499999999999996
v 0.10499999999999995 0.15 0.20499999999999996
v 0.37499999999999989 0.14 0.475
v 0.39499999999999991 0.15 0.49499999999999994
v 0.12499999999999994 0.14 0.475
v 0.10499999999999995 0.15 0.49499999999999994
v 0.12499999999999994 0.14 0.525
v 0.37499999999999989 0.14 0.525
v 0.39499999999999991 0.15 0.505
v 0.10499999999999995 0.15 0.505
v 0.37499999999999989 0.14 0.77499999999999991
v 0.39499999999999991 0.15 0.79499999999999993
v 0.12499999999999994 0.14 0.77499999999999991
v 0.10499999999999995 0.15 0.79499999999999993
v -0.67999999999999994 0.13 -0.80499999999999994
v 0.28 0.13 -0.80499999999999994
v 0.30000000000000004 0.15 -0.825
v -0.7 0.15 -0.825
v 0.28 0.13 -0.44499999999999995
v 0.30000000000000004 0.15 -0.42499999999999993
v -0.67999999999999994 0.13 -0.44499999999999995
v -0.7 0.15 -0.42499999999999993
v 0.445 0.13 -0.27999999999999997
v 0.80499999999999994 0.13 -0.27999999999999997
v 0.825 0.15 -0.3
v 0.425 0.15 -0.3
v 0.80499999999999994 0.13 0.67999999999999994
v 0.825 0.15 0.7
v 0.445 0.13 0.67999999999999994
v 0.425 0.15 0.7
v -0.854439 0.15 0.256271
v -0.854439 0.15 -0.256271
v -0.256271 0.15 -0.854439
v 0.256273 0.15 -0.854439
v 0.861069 0.15 -0.396061
v 0.854439 0.15 -0.256271
v -0.854439 0.15 -0.854439
v -0.854439 0.15 0.854439
v -0.256273 0.15 0.854439
v 0.256273 0.15 0.854439
v 0.854439 0.15 0.854439
v 0.854439 0.15 0.256271
v 0.784569 0.15 -0.472279
v 0.672195 0.15 -0.46653
v 0.443619 0.15 -0.693596
v 0.444206 0.15 -0.774025
v 0.364376 0.15 -0.854439
v 0.524693 0.15 -0.545002
vn 0 0.0050000000000000018 0.002499999999999994
vn -0.0024999999999999948 0.0050000000000000036 0
vn 0 0.0049999999999999949 -0.002499999999999994
vn 0.0024999999999999948 0.0050000000000000036 0
vn 0 0.0049999999999999949 0.002499999999999994
vn -0.0024999999999999953 0.0050000000000000044 0
vn 0.0024999999999999953 0.0050000000000000044 0
vn 0 0.004999999999999988 -0.002499999999999994
vn -0.002499999999999994 0.0050000000000000018 0
vn 0 0.0050000000000000018 -0.002499999999999994
vn 0.002499999999999994 0.0050000000000000018 0
vn 0 0.0050000000000000036 0.0024999999999999948
vn -0.0024999999999999948 0.0049999999999999966 0
vn 0 0.0049999999999999966 -0.0024999999999999948
vn 0 0.0049999999999999966 0.0024999999999999948
vn -0.0024999999999999953 0.0049999999999999975 0
vn 0 0.00499999999999999 -0.0024999999999999948
vn -0.002499999999999994 0.0049999999999999949 0
vn 0 0.0050000000000000036 -0.0024999999999999948
vn 0 0.0050000000000000044 0.0024999999999999953
vn 0 0.0049999999999999975 -0.0024999999999999953
vn 0.0024999999999999948 0.0049999999999999966 0
vn 0 0.0049999999999999975 0.0024999999999999953
vn 0.0024999999999999953 0.0049999999999999975 0
vn 0 0.0049999999999999906 -0.0024999999999999953
vn 0 0.0050000000000000044 -0.0024999999999999953
vn 0.002499999999999994 0.0049999999999999949 0
vn 0 0.019200000000000016 0.019199999999999991
vn -0.0071999999999999963 0.0072000000000000059 0
vn 0 0.019200000000000016 -0.019199999999999991
vn 0.0071999999999999963 0.0072000000000000059 0
vn 0 0.007200000000000005 0.0071999999999999946
vn -0.019199999999999991 0.019200000000000016 0
vn 0 0.007200000000000005 -0.0071999999999999946
vn 0.019199999999999991 0.019200000000000016 0
vn 0 0.017237309999999971 0
vn 0 0.030464983937999957 0
vn 0 0.0028999999999999616 0
vn 0 0.0029000000000000098 0
vn 0 0.002900000000000018 0
vn 0 0.0029000000000000345 0
vn 0 0.0028999999999999621 0
vn 0 0.00290000000000001 0
vn 0 0.0029000000000000184 0
vn 0 0.0028999999999999942 0
vn 0 0.0028999999999999937 0
vn 0 0.0029000000000000024 0
vn 0 0.002900000000000002 0
vn 0 0.029438999999999993 0
vn 0 0.015088782815999997 0
vn 0 0.0384244 0
vn 0 0.0044052010799999989 0
vn 0 0.035554507751999941 0
vn 0 9.9999999999998785E-05 0
vn 0 9.9999999999998514E-05 0
vn 0 0.00010000000000000018 0
vn 0 0.00010000000000000045 0
vn 0 0.00010000000000000074 0
vn 0 9.99999999999999E-05 0
vn 0 0.00010000000000000156 0
vn 0 0.00010000000000000185 0
vn 0 0.0029000000000000341 0
vn 0 0.00059438999999999141 0
vn 0 0.00059439000000000128 0
vn 0 0.00059439000000000291 0
vn 0 0.017237309999999968 0
vn 0 0.017237310000000002 0
vn 0 0.00059439000000000735 0
vn 0 0.017237310000000006 0
vn 0 0.00059438999999999911 0
vn 0 0.00059439000000000074 0
vn 0 0.035554388874000011 0
vn 0 0.030465221694000007 0
vn 0 0.015088723937999997 0
vn 0 0.017609467751999994 0
vn 0 0.069205475 0
vn 0 0.037999999999999985 0
vn 0 0.008700000000000022 0
vn 0 0.00030000000000000274 0
vn 0 0.0087000000000000237 0
vn 0 0.00030000000000000193 0
vn 0 0.00029999999999999694 0
vn 0 0.030000000000000082 0
vn 0 0.044308384999999971 0
vn 0 0.00030769000000002592 0
vn 0 1.0610000000000906E-05 0
vn 0 0.00030769000000002597 0
vn 0 1.0610000000000876E-05 0
vn 0 1.0610000000001023E-05 0
vn 0 0.0090047200319999989 0
vn 0 0.0064678500879999986 0
vn 0 0.0031824442169999996 0
vn 0 0.012687263644999986 0
vn 0 0.010687473789999997 0
vn 0 0.089877199999999977 0
vn 0 0.035332644100000005 0
vn 0 0.034072146675000012 0
vn 0 0.048520274999999946 0
vn 0 0.030000000000000027 0
vn 0 0.045429875000000043 0
vn 0 0.0617756 0
vt 0.091775428464999975 0.71266049427499989
vt 0.21105754831499995 0.71266049427499989
vt 0.22060011790299994 0.72220306386299993
vt 0.082232858876999992 0.72220306386299993
vt 0.21105754831499995 0.59337837442499985
vt 0.22060011790299994 0.58383580483699993
vt 0.091775428464999975 0.59337837442499985
vt 0.082232858876999992 0.58383580483699993
vt 0.091775428464999975 0.569521950455
vt 0.21105754831499995 0.569521950455
vt 0.22060011790299994 0.579064520043
vt 0.082232858876999992 0.579064520043
vt 0.21105754831499995 0.45023983060499995
vt 0.22060011790299994 0.44069726101699996
vt 0.091775428464999975 0.45023983060499995
vt 0.082232858876999992 0.44069726101699996
vt 0.091775428464999975 0.42638340663499996
vt 0.21105754831499995 0.42638340663499996
vt 0.22060011790299994 0.43592597622299994
vt 0.082232858876999992 0.43592597622299994
vt 0.21105754831499995 0.30710128678499993
vt 0.22060011790299994 0.297558717197
vt 0.091775428464999975 0.30710128678499993
vt 0.082232858876999992 0.297558717197
vt 0.091775428464999975 0.28324486281499994
vt 0.21105754831499995 0.28324486281499994
vt 0.22060011790299994 0.29278743240299993
vt 0.082232858876999992 0.29278743240299993
vt 0.21105754831499995 0.16396274296499996
vt 0.22060011790299994 0.15442017337699998
vt 0.091775428464999975 0.16396274296499996
vt 0.082232858876999992 0.15442017337699998
vt 0.23491397228500002 0.71266049427499989
vt 0.35419609213500003 0.71266049427499989
vt 0.363738661723 0.72220306386299993
vt 0.225371402697 0.72220306386299993
vt 0.35419609213500003 0.59337837442499985
vt 0.363738661723 0.58383580483699993
vt 0.23491397228500002 0.59337837442499985
vt 0.225371402697 0.58383580483699993
vt 0.23491397228500002 0.569521950455
vt 0.35419609213500003 0.569521950455
vt 0.363738661723 0.579064520043
vt 0.225371402697 0.579064520043
vt 0.35419609213500003 0.45023983060499995
vt 0.363738661723 0.44069726101699996
vt 0.23491397228500002 0.45023983060499995
vt 0.225371402697 0.44069726101699996
vt 0.23491397228500002 0.42638340663499996
vt 0.35419609213500003 0.42638340663499996
vt 0.363738661723 0.43592597622299994
vt 0.225371402697 0.43592597622299994
vt 0.35419609213500003 0.30710128678499993
vt 0.363738661723 0.297558717197
vt 0.23491397228500002 0.30710128678499993
vt 0.225371402697 0.297558717197
vt 0.23491397228500002 0.28324486281499994
vt 0.35419609213500003 0.28324486281499994
vt 0.363738661723 0.29278743240299993
vt 0.225371402697 0.29278743240299993
vt 0.35419609213500003 0.16396274296499996
vt 0.363738661723 0.15442017337699998
vt 0.23491397228500002 0.16396274296499996
vt 0.225371402697 0.15442017337699998
vt 0.378052516105 0.71266049427499989
vt 0.497334635955 0.71266049427499989
vt 0.506877205543 0.72220306386299993
vt 0.368509946517 0.72220306386299993
vt 0.497334635955 0.59337837442499985
vt 0.506877205543 0.58383580483699993
vt 0.378052516105 0.59337837442499985
vt 0.368509946517 0.58383580483699993
vt 0.378052516105 0.569521950455
vt 0.497334635955 0.569521950455
vt 0.506877205543 0.579064520043
vt 0.368509946517 0.579064520043
vt 0.497334635955 0.45023983060499995
vt 0.506877205543 0.44069726101699996
vt 0.378052516105 0.45023983060499995
vt 0.368509946517 0.44069726101699996
vt 0.378052516105 0.42638340663499996
vt 0.497334635955 0.42638340663499996
vt 0.506877205543 0.43592597622299994
vt 0.368509946517 0.43592597622299994
vt 0.497334635955 0.30710128678499993
vt 0.506877205543 0.297558717197
vt 0.378052516105 0.30710128678499993
vt 0.368509946517 0.297558717197
vt 0.378052516105 0.28324486281499994
vt 0.497334635955 0.28324486281499994
vt 0.506877205543 0.29278743240299993
vt 0.368509946517 0.29278743240299993
vt 0.497334635955 0.16396274296499996
vt 0.506877205543 0.15442017337699998
vt 0.378052516105 0.16396274296499996
vt 0.368509946517 0.15442017337699998
vt 0.521191059925 0.71266049427499989
vt 0.640473179775 0.71266049427499989
vt 0.650015749363 0.72220306386299993
vt 0.511648490337 0.72220306386299993
vt 0.640473179775 0.59337837442499985
vt 0.650015749363 0.58383580483699993
vt 0.521191059925 0.59337837442499985
vt 0.511648490337 0.58383580483699993
vt 0.521191059925 0.569521950455
vt 0.640473179775 0.569521950455
vt 0.650015749363 0.579064520043
vt 0.511648490337 0.579064520043
vt 0.640473179775 0.45023983060499995
vt 0.650015749363 0.44069726101699996
vt 0.521191059925 0.45023983060499995
vt 0.511648490337 0.44069726101699996
vt 0.521191059925 0.42638340663499996
vt 0.640473179775 0.42638340663499996
vt 0.650015749363 0.43592597622299994
vt 0.511648490337 0.43592597622299994
vt 0.640473179775 0.30710128678499993
vt 0.650015749363 0.297558717197
vt 0.521191059925 0.30710128678499993
vt 0.511648490337 0.297558717197
vt 0.521191059925 0.28324486281499994
vt 0.640473179775 0.28324486281499994
vt 0.650015749363 0.29278743240299993
vt 0.511648490337 0.29278743240299993
vt 0.640473179775 0.16396274296499996
vt 0.650015749363 0.15442017337699998
vt 0.521191059925 0.16396274296499996
vt 0.511648490337 0.15442017337699998
vt 0.13710263400800005 0.91782574041699994
vt 0.595145974232 0.91782574041699994
vt 0.60468854382 0.927368310005
vt 0.12756006442 0.927368310005
vt 0.595145974232 0.74605948783299991
vt 0.60468854382 0.736516918245
vt 0.13710263400800005 0.74605948783299991
vt 0.12756006442 0.736516918245
vt 0.673872173333 0.66733328873199993
vt 0.845638425917 0.66733328873199993
vt 0.855180995505 0.67687585832
vt 0.664329603745 0.67687585832
vt 0.845638425917 0.20928994850799998
vt 0.855180995505 0.19974737891999994
vt 0.673872173333 0.20928994850799998
vt 0.664329603745 0.19974737891999994
vt 0.053872819189943411 0.41146312195568252
vt 0.053872819189943411 0.65601150704431732
vt 0.33927580745568259 0.9414144953100565
vt 0.58382514680127617 0.9414144953100565
vt 0.87239054262847859 0.72270929717964338
vt 0.86922718081005668 0.65601150704431732
vt 0.053872819189943411 0.9414144953100565
vt 0.053872819189943411 0.12606013368994334
vt 0.3392748531987238 0.12606013368994334
vt 0.58382514680127617 0.12606013368994334
vt 0.86922718081005668 0.12606013368994334
vt 0.86922718081005668 0.41146312195568252
vt 0.83589021395437868 0.75907507562255261
vt 0.78227337821028309 0.75633206399448194
vt 0.67321325890294859 0.8646717192979223
vt 0.67349333332035644 0.903046685767585
vt 0.63540416680985445 0.9414144953100565
vt 0.71189597324182419 0.79377329002995878
g Background
f 1/1/1 2/2/1 3/3/1 4/4/1
f 2/2/2 5/5/2 6/6/2 3/3/2
f 5/5/3 7/7/3 8/8/3 6/6/3
f 8/8/4 7/7/4 1/1/4 4/4/4
f 9/9/5 10/10/5 11/11/5 12/12/5
f 10/10/6 13/13/6 14/14/6 11/11/6
f 13/13/3 15/15/3 16/16/3 14/14/3
f 16/16/7 15/15/7 9/9/7 12/12/7
f 17/17/5 18/18/5 19/19/5 20/20/5
f 18/18/6 21/21/6 22/22/6 19/19/6
f 21/21/8 23/23/8 24/24/8 22/22/8
f 24/24/7 23/23/7 17/17/7 20/20/7
f 25/25/1 26/26/1 27/27/1 28/28/1
f 26/26/9 29/29/9 30/30/9 27/27/9
f 29/29/10 31/31/10 32/32/10 30/30/10
f 32/32/11 31/31/11 25/25/11 28/28/11
f 33/33/12 34/34/12 35/35/12 36/36/12
f 34/34/13 37/37/13 38/38/13 35/35/13
f 37/37/14 39/39/14 40/40/14 38/38/14
f 40/40/4 39/39/4 33/33/4 36/36/4
f 41/41/15 42/42/15 43/43/15 44/44/15
f 42/42/16 45/45/16 46/46/16 43/43/16
f 45/45/14 47/47/14 48/48/14 46/46/14
f 48/48/7 47/47/7 41/41/7 44/44/7
f 49/49/15 50/50/15 51/51/15 52/52/15
f 50/50/16 53/53/16 54/54/16 51/51/16
f 53/53/17 55/55/17 56/56/17 54/54/17
f 56/56/7 55/55/7 49/49/7 52/52/7
f 57/57/12 58/58/12 59/59/12 60/60/12
f 58/58/18 61/61/18 62/62/18 59/59/18
f 61/61/19 63/63/19 64/64/19 62/62/19
f 64/64/11 63/63/11 57/57/11 60/60/11
f 65/65/20 66/66/20 67/67/20 68/68/20
f 66/66/13 69/69/13 70/70/13 67/67/13
f 69/69/21 71/71/21 72/72/21 70/70/21
f 72/72/22 71/71/22 65/65/22 68/68/22
f 73/73/23 74/74/23 75/75/23 76/76/23
f 74/74/16 77/77/16 78/78/16 75/75/16
f 77/77/21 79/79/21 80/80/21 78/78/21
f 80/80/24 79/79/24 73/73/24 76/76/24
f 81/81/23 82/82/23 83/83/23 84/84/23
f 82/82/16 85/85/16 86/86/16 83/83/16
f 85/85/25 87/87/25 88/88/25 86/86/25
f 88/88/24 87/87/24 81/81/24 84/84/24
f 89/89/20 90/90/20 91/91/20 92/92/20
f 90/90/18 93/93/18 94/94/18 91/91/18
f 93/93/26 95/95/26 96/96/26 94/94/26
f 96/96/27 95/95/27 89/89/27 92/92/27
f 97/97/12 98/98/12 99/99/12 100/100/12
f 98/98/2 101/101/2 102/102/2 99/99/2
f 101/101/14 103/103/14 104/104/14 102/102/14
f 104/104/22 103/103/22 97/97/22 100/100/22
f 105/105/15 106/106/15 107/107/15 108/108/15
f 106/106/6 109/109/6 110/110/6 107/107/6
f 109/109/14 111/111/14 112/112/14 110/110/14
f 112/112/24 111/111/24 105/105/24 108/108/24
f 113/113/15 114/114/15 115/115/15 116/116/15
f 114/114/6 117/117/6 118/118/6 115/115/6
f 117/117/17 119/119/17 120/120/17 118/118/17
f 120/120/24 119/119/24 113/113/24 116/116/24
f 121/121/12 122/122/12 123/123/12 124/124/12
f 122/122/9 125/125/9 126/126/9 123/123/9
f 125/125/19 127/127/19 128/128/19 126/126/19
f 128/128/27 127/127/27 121/121/27 124/124/27
f 129/129/28 130/130/28 131/131/28 132/132/28
f 130/130/29 133/133/29 134/134/29 131/131/29
f 133/133/30 135/135/30 136/136/30 134/134/30
f 136/136/31 135/135/31 129/129/31 132/132/31
f 137/137/32 138/138/32 139/139/32 140/140/32
f 138/138/33 141/141/33 142/142/33 139/139/33
f 141/141/34 143/143/34 144/144/34 142/142/34
f 144/144/35 143/143/35 137/137/35 140/140/35
f 145/145/36 8/8/36 4/4/36
f 146/146/37 145/145/37 4/4/37
f 8/8/38 12/12/38 11/11/38
f 6/6/38 8/8/38 11/11/38
f 16/16/39 20/20/39 19/19/39
f 14/14/39 16/16/39 19/19/39
f 24/24/40 28/28/40 27/27/40
f 22/22/40 24/24/40 27/27/40
f 6/6/41 40/40/41 36/36/41
f 3/3/41 6/6/41 36/36/41
f 40/40/42 44/44/42 43/43/42
f 38/38/42 40/40/42 43/43/42
f 48/48/43 52/52/43 51/51/43
f 46/46/43 48/48/43 51/51/43
f 56/56/44 60/60/44 59/59/44
f 54/54/44 56/56/44 59/59/44
f 38/38/45 72/72/45 68/68/45
f 35/35/45 38/38/45 68/68/45
f 72/72/42 76/76/42 75/75/42
f 70/70/42 72/72/42 75/75/42
f 54/54/45 88/88/45 84/84/45
f 51/51/45 54/54/45 84/84/45
f 62/62/46 96/96/46 92/92/46
f 59/59/46 62/62/46 92/92/46
f 70/70/47 104/104/47 100/100/47
f 67/67/47 70/70/47 100/100/47
f 104/104/38 108/108/38 107/107/38
f 102/102/38 104/104/38 107/107/38
f 86/86/47 120/120/47 116/116/47
f 83/83/47 86/86/47 116/116/47
f 94/94/48 128/128/48 124/124/48
f 91/91/48 94/94/48 124/124/48
f 147/147/49 132/132/49 131/131/49
f 148/148/50 147/147/50 131/131/50
f 149/149/51 140/140/51 139/139/51
f 150/150/52 149/149/52 139/139/52
f 151/151/53 146/146/53 4/4/53
f 108/108/54 104/104/54 70/70/54
f 112/112/47 108/108/47 70/70/47
f 112/112/54 70/70/54 75/75/54
f 112/112/47 75/75/47 78/78/47
f 76/76/55 72/72/55 38/38/55
f 80/80/45 76/76/45 38/38/45
f 80/80/55 38/38/55 43/43/55
f 80/80/45 43/43/45 46/46/45
f 80/80/56 46/46/56 51/51/56
f 78/78/43 80/80/43 51/51/43
f 112/112/57 78/78/57 51/51/57
f 110/110/39 112/112/39 51/51/39
f 110/110/56 51/51/56 84/84/56
f 110/110/43 84/84/43 83/83/43
f 110/110/57 83/83/57 116/116/57
f 110/110/39 116/116/39 115/115/39
f 88/88/57 54/54/57 59/59/57
f 86/86/44 88/88/44 59/59/44
f 120/120/58 86/86/58 59/59/58
f 118/118/40 120/120/40 59/59/40
f 118/118/57 59/59/57 92/92/57
f 118/118/44 92/92/44 91/91/44
f 118/118/58 91/91/58 124/124/58
f 118/118/40 124/124/40 123/123/40
f 44/44/59 40/40/59 6/6/59
f 48/48/41 44/44/41 6/6/41
f 52/52/60 48/48/60 6/6/60
f 56/56/41 52/52/41 6/6/41
f 60/60/61 56/56/61 6/6/61
f 64/64/62 60/60/62 6/6/62
f 64/64/59 6/6/59 11/11/59
f 64/64/41 11/11/41 14/14/41
f 64/64/60 14/14/60 19/19/60
f 64/64/41 19/19/41 22/22/41
f 64/64/61 22/22/61 27/27/61
f 64/64/62 27/27/62 30/30/62
f 12/12/63 8/8/63 145/145/63
f 16/16/36 12/12/36 145/145/36
f 20/20/64 16/16/64 145/145/64
f 24/24/36 20/20/36 145/145/36
f 28/28/65 24/24/65 145/145/65
f 32/32/66 28/28/66 145/145/66
f 32/32/53 145/145/53 152/152/53
f 30/30/67 32/32/67 152/152/67
f 64/64/68 30/30/68 152/152/68
f 62/62/69 64/64/69 152/152/69
f 96/96/70 62/62/70 152/152/70
f 94/94/69 96/96/69 152/152/69
f 128/128/71 94/94/71 152/152/71
f 126/126/67 128/128/67 152/152/67
f 126/126/72 152/152/72 153/153/72
f 126/126/73 153/153/73 154/154/73
f 126/126/72 154/154/72 155/155/72
f 156/156/74 150/150/74 139/139/74
f 155/155/75 156/156/75 139/139/75
f 155/155/49 139/139/49 142/142/49
f 126/126/76 155/155/76 142/142/76
f 126/126/77 142/142/77 144/144/77
f 123/123/78 126/126/78 144/144/78
f 118/118/79 123/123/79 144/144/79
f 115/115/80 118/118/80 144/144/80
f 110/110/81 115/115/81 144/144/81
f 107/107/80 110/110/80 144/144/80
f 102/102/82 107/107/82 144/144/82
f 99/99/80 102/102/80 144/144/80
f 99/99/83 144/144/83 140/140/83
f 99/99/84 140/140/84 149/149/84
f 100/100/85 99/99/85 149/149/85
f 67/67/86 100/100/86 149/149/86
f 68/68/87 67/67/87 149/149/87
f 35/35/88 68/68/88 149/149/88
f 36/36/87 35/35/87 149/149/87
f 3/3/89 36/36/89 149/149/89
f 4/4/85 3/3/85 149/149/85
f 149/149/90 157/157/90 158/158/90
f 159/159/91 160/160/91 161/161/91
f 161/161/92 148/148/92 131/131/92
f 159/159/93 161/161/93 131/131/93
f 162/162/94 159/159/94 131/131/94
f 162/162/95 131/131/95 134/134/95
f 158/158/96 162/162/96 134/134/96
f 149/149/97 158/158/97 134/134/97
f 4/4/98 149/149/98 134/134/98
f 4/4/99 134/134/99 136/136/99
f 151/151/100 4/4/100 136/136/100
f 151/151/101 136/136/101 132/132/101
f 132/132/75 147/147/75 151/151/75
