o SquareHighlight
v 1 0 -1
v 1.2 0.2 -1.2
v 1.2 0.2 1.2
v 1 0 1
v 1 0 0.99999999999999989
v -1.2 0.2 1.2
v -0.99999999999999989 0 1
v -0.99999999999999989 0 1.0000000000000002
v -1.1999999999999997 0.2 1.2000000000000002
v -1.2000000000000002 0.2 -1.1999999999999997
v -1.0000000000000002 0 -0.99999999999999989
v -1.0000000000000002 0 -0.99999999999999978
v 1.1999999999999997 0.2 -1.2000000000000002
v 0.99999999999999978 0 -1.0000000000000002
vn 0.48 -0.47999999999999987 0
vn 0 -0.48000000000000015 0.48
vn -0.48 -0.4799999999999997 8.8817841970012528E-17
vn -8.8817841970012528E-17 -0.48 -0.48
g SquareHighlight
f 1//1 2//1 3//1 4//1
f 5//2 3//2 6//2 7//2
f 8//3 9//3 10//3 11//3
f 12//4 10//4 13//4 14//4
